<svg xmlns="http://www.w3.org/2000/svg" xmlns:xlink="http://www.w3.org/1999/xlink" viewBox="0,0,256,256" width="144px" height="144px" fill-rule="nonzero"><g fill="none" fill-rule="nonzero" stroke="none" stroke-width="1" stroke-linecap="butt" stroke-linejoin="miter" stroke-miterlimit="10" stroke-dasharray="" stroke-dashoffset="0" font-family="none" font-weight="none" font-size="none" text-anchor="none" style="mix-blend-mode: normal"><g transform="scale(5.33333,5.33333)"><path d="M19,14h-7c0,0 0.5,3.4 3.2,4.8c2.7,1.4 3.8,-4.8 3.8,-4.8z" fill="#ffffff"></path><path d="M11.8,37.6c0,0 -1.6,0.1 -3.5,-3.4c-1.9,-3.5 -3.2,-6.3 -3.2,-6.3c0,0 -0.4,-2.6 0.5,-3.5c1.4,-1.4 4.2,2.8 7.6,-0.7c0,0 2.8,-2.8 2.1,-6.2c-0.3,-1.4 -0.7,-2.1 0.7,-3.5c1.4,-1.4 9,-0.7 14.6,-3.5c0,0 3.5,-2.1 4.2,-2.8c0.7,-0.7 3.5,-3.5 6.9,0c2.9,2.9 -2.1,9 -4.2,11.1c-2.1,2.1 -14.6,14.6 -14.6,14.6c0,0 -7,5.5 -11.1,4.2z" fill="#ffffff"></path><path d="M12.6,37.7c0.1,0 0.3,0 0.4,0l9.1,-7.8l-1.3,-13.9l7.6,-2.1l-0.4,-2.5c-4,1.3 -8.4,1.4 -10.7,1.9c0.5,9 -3.9,21.8 -4.7,24.4z" fill="#222222"></path><path d="M43,7.7v1.4c0,0 -0.7,7.6 -5.6,12.5c-6.3,6.3 -13.8,13.8 -14.6,14.6c-2.8,2.8 -6.9,5.6 -6.9,5.6c-0.4,0.4 -1,0.4 -1.4,0l-2.8,-4.2c2.1,-0.7 4.2,-2.8 9,-7.6c0,0 12.5,-9.7 14.6,-11.8c0,0 6.2,-6.2 6.2,-10.4h1.5z" fill="#222222"></path><path d="M27.4,16.9c0.4,0.9 2,0.8 2.8,0c0,0 8.3,-7.5 6.9,-10.7v0c-0.3,0.1 -0.6,0.2 -0.8,0.3v0c-0.3,0.1 -0.5,0.3 -0.7,0.4v0c-0.4,0.3 -0.7,0.6 -0.9,0.8c-0.7,0.7 -4.2,2.8 -4.2,2.8c-1.1,0.6 -2.3,1 -3.5,1.3c0,1.9 0.1,4.3 0.4,5.1zM14.9,30c-2.2,0.3 -6,-2.1 -8,-1.5c-0.6,0.2 -0.7,1.1 -0.7,1.7c0.5,1.1 1.2,2.4 2,4c1.9,3.5 3.5,3.4 3.5,3.4c0.3,-0.1 0.7,-0.3 1,-0.5c0.6,-1.4 1.4,-4 2.2,-7.1zM20,15c-0.6,0 -1,-0.4 -1,-1v-1.4c0,-0.6 0.4,-1 1,-1c0.6,0 1,0.4 1,1v1.4c0,0.6 -0.4,1 -1,1zM24,14.4c-0.6,0 -1,-0.4 -1,-1v-1.4c0,-0.6 0.4,-1 1,-1c0.6,0 1,0.4 1,1v1.4c0,0.5 -0.4,1 -1,1z" fill="#cab99a"></path><path d="M27.7,27.1c0.4,0.4 0.4,1 0,1.4l-7.6,7.6c-0.4,0.4 -1,0.4 -1.4,0c-0.4,-0.4 -0.4,-1 0,-1.4l7.6,-7.6c0.4,-0.3 1.1,-0.3 1.4,0z" fill="#222222"></path></g></g></svg>