<svg xmlns="http://www.w3.org/2000/svg" xmlns:xlink="http://www.w3.org/1999/xlink" viewBox="0,0,256,256" width="144px" height="144px" fill-rule="nonzero"><g fill="none" fill-rule="nonzero" stroke="none" stroke-width="1" stroke-linecap="butt" stroke-linejoin="miter" stroke-miterlimit="10" stroke-dasharray="" stroke-dashoffset="0" font-family="none" font-weight="none" font-size="none" text-anchor="none" style="mix-blend-mode: normal"><g transform="scale(5.33333,5.33333)"><path d="M43,43h-38l1.624,-6.287c0.792,-5.017 5.117,-8.713 10.197,-8.713h14.357c5.08,0 9.405,3.696 10.197,8.713z" fill="#222222"></path><path d="M24,30v0c-5.135,0 -9.46,-3.837 -10.072,-8.936l-0.498,-4.15c-0.761,-6.337 4.187,-11.914 10.57,-11.914v0c6.383,0 11.331,5.577 10.57,11.915l-0.498,4.15c-0.612,5.098 -4.937,8.935 -10.072,8.935z" fill="#ffffff"></path><circle cx="35" cy="6.343" r="5" fill="#222222"></circle><path d="M24,5c-0.719,0 -1.416,0.08 -2.092,0.215c-0.003,0.095 -0.015,0.189 -0.015,0.285c0,5.858 4.749,10.607 10.607,10.607c0.732,0 1.447,-0.074 2.137,-0.215c0.145,-5.902 -4.601,-10.892 -10.637,-10.892z" fill="#222222"></path><path d="M34,22h-20c-1.104,0 -2,-0.896 -2,-2c0,-1.104 0.896,-2 2,-2h20c1.104,0 2,0.896 2,2c0,1.104 -0.896,2 -2,2z" fill="#ffffff"></path></g></g></svg>