<svg xmlns="http://www.w3.org/2000/svg" xmlns:xlink="http://www.w3.org/1999/xlink" viewBox="0,0,256,256" width="144px" height="144px" fill-rule="nonzero"><g fill="none" fill-rule="nonzero" stroke="none" stroke-width="1" stroke-linecap="butt" stroke-linejoin="miter" stroke-miterlimit="10" stroke-dasharray="" stroke-dashoffset="0" font-family="none" font-weight="none" font-size="none" text-anchor="none" style="mix-blend-mode: normal"><g transform="scale(5.33333,5.33333)"><path d="M34,22h-20c-1.104,0 -2,-0.896 -2,-2c0,-1.104 0.896,-2 2,-2h20c1.104,0 2,0.896 2,2c0,1.104 -0.896,2 -2,2z" fill="#ffffff"></path><path d="M43,43h-38l1.624,-6.287c0.792,-5.017 5.117,-8.713 10.197,-8.713h14.357c5.08,0 9.405,3.696 10.197,8.713z" fill="#222222"></path><path d="M24,30v0c-5.135,0 -9.46,-3.837 -10.072,-8.936l-0.498,-4.15c-0.761,-6.337 4.187,-11.914 10.57,-11.914v0c6.383,0 11.331,5.577 10.57,11.915l-0.498,4.15c-0.612,5.098 -4.937,8.935 -10.072,8.935z" fill="#ffffff"></path><path d="M24,5c-2.513,0 -4.795,0.873 -6.602,2.308c0.954,2.73 3.546,4.692 6.602,4.692c3.056,0 5.648,-1.962 6.602,-4.692c-1.807,-1.435 -4.089,-2.308 -6.602,-2.308z" fill="#222222"></path></g></g></svg>