<svg xmlns="http://www.w3.org/2000/svg" xmlns:xlink="http://www.w3.org/1999/xlink" viewBox="0,0,256,256" width="100px"
     height="100px" fill-rule="nonzero"  fill="#222222">
    <g fill-rule="nonzero" stroke="none" stroke-width="1" stroke-linecap="butt" stroke-linejoin="miter"
       stroke-miterlimit="10" stroke-dasharray="" stroke-dashoffset="0" font-family="none" font-weight="none"
       font-size="none" text-anchor="none" style="mix-blend-mode: normal">
        <g transform="scale(5.12,5.12)">
            <path d="M35.8125,2c-0.25,0 -0.51953,0.11328 -0.71875,0.3125l-26,26c-0.10156,0.10156 -0.1875,0.17578 -0.1875,0.375l-6.8125,18c-0.19922,0.30078 -0.08203,0.69922 0.21875,1c0.19922,0.19922 0.38672,0.3125 0.6875,0.3125c0.10156,0 0.20703,0.00781 0.40625,-0.09375l18,-6.8125c0.10156,-0.10156 0.30469,-0.08594 0.40625,-0.1875l1.59375,-1.59375l24.28125,-24.3125c0.19922,-0.30078 0.3125,-0.51172 0.3125,-0.8125c0,-0.30078 -0.11328,-0.48828 -0.3125,-0.6875l-11.1875,-11.1875c-0.19922,-0.19922 -0.4375,-0.3125 -0.6875,-0.3125zM11.09375,29.1875c0.5,1 0.30469,2.10156 -0.09375,3c-0.19922,0.39844 0.00781,0.92578 0.40625,1.125c0.39844,0.30078 0.88672,0.19922 1.1875,0c0.69922,-0.5 3.30078,-1.70703 4.5,-0.40625c1.19922,1.19922 0.21875,3.69922 -0.28125,4.5c-0.30078,0.30078 -0.30078,0.78906 0,1.1875c0.30078,0.30078 0.69531,0.50781 1.09375,0.40625c1.30078,-0.39844 2.30078,-0.19922 3,0l-0.40625,0.40625l-11.125,4.15625l-2.875,-2.96875l4.1875,-11z"></path>
        </g>
    </g>
</svg>