<svg  viewBox="0 0 1920 280" fill="none" xmlns="http://www.w3.org/2000/svg">
<path d="M1920 36.969C1848.05 95.598 1841.21 259.04 1735.65 279.04C1646.99 295.839 1629.06 68.6 1524.6 111.187C1447.39 142.669 1453.92 205.593 1391.3 240.038C1328.69 274.483 1242.5 133.353 1206.18 151.131C1169.87 168.909 1183.65 221.121 1124.79 222.232C1065.93 223.343 1090.22 45.561 1041.33 42.228C1012.51 40.263 958.635 117.781 913.553 118.892C868.47 120.003 842.353 65.018 779.739 61.685C717.125 58.352 687.403 181.112 633.554 196.667C579.705 212.222 573.472 174.086 548.513 171.043C489.623 163.863 466.365 193.785 450.085 204.897C433.805 216.008 408.292 241.218 375.776 203.334C323.132 142.001 343.554 -34.444 285.776 31.112C236.839 86.637 228.045 242.439 175.776 242.223C122 242 103.5 111 0 116.719V0H1920V36.969Z" fill="#CB413F"/>
</svg>