<svg xmlns="http://www.w3.org/2000/svg" xmlns:xlink="http://www.w3.org/1999/xlink" viewBox="0,0,256,256" width="128px" height="128px" fill-rule="nonzero"><g fill="none" fill-rule="nonzero" stroke="none" stroke-width="1" stroke-linecap="butt" stroke-linejoin="miter" stroke-miterlimit="10" stroke-dasharray="" stroke-dashoffset="0" font-family="none" font-weight="none" font-size="none" text-anchor="none" style="mix-blend-mode: normal"><g transform="scale(4,4)"><path d="M31,3c-15.46397,0 -28,12.53603 -28,28c0,15.46397 12.53603,28 28,28c15.46397,0 28,-12.53603 28,-28c0,-15.46397 -12.53603,-28 -28,-28z" fill="#ffffff"></path><path d="M52.16,31c1.88271,-0.00266 3.6575,0.87854 4.79341,2.37998c1.13591,1.50144 1.5012,3.449 0.98659,5.26002c-3.40756,12.05957 -14.41326,20.3864 -26.945,20.3864c-12.53174,0 -23.53744,-8.32683 -26.945,-20.3864c-0.5151,-1.81271 -0.14863,-3.76212 0.98959,-5.26402c1.13822,-1.5019 2.91594,-2.38179 4.80041,-2.37598z" fill="#ffffff"></path><path d="M50,31c0,10.49341 -8.50659,19 -19,19h-1c-3.96584,-0.20103 -7.76676,-1.65 -10.86,-4.14c-0.74266,-0.58441 -1.43814,-1.22639 -2.08,-1.92c-0.97602,-1.05129 -1.83134,-2.20849 -2.55,-3.45c-1.19158,-2.05865 -1.97902,-4.32593 -2.32,-6.68c-0.13535,-0.9304 -0.19887,-1.86985 -0.19,-2.81c0,-10.49341 8.50659,-19 19,-19c0.93399,-0.00118 1.86671,0.06902 2.79,0.21c2.35407,0.34098 4.62135,1.12842 6.68,2.32c1.24147,0.71873 2.39866,1.57404 3.45,2.55c0.69361,0.64186 1.33559,1.33734 1.92,2.08c0.92621,1.15456 1.71485,2.41304 2.35,3.75c1.05993,2.22268 1.67481,4.63124 1.81,7.09c0,0.35 0,0.67 0,1z" fill="#cab99a"></path><path d="M50,30l-20,20c-3.96584,-0.20103 -7.76676,-1.65 -10.86,-4.14l26.7,-26.7c2.49328,3.08528 3.9491,6.87882 4.16,10.84zM43.92,17.08l-26.84,26.84c-0.97602,-1.05129 -1.83134,-2.20849 -2.55,-3.45l25.94,-25.94c1.24147,0.71873 2.39866,1.57404 3.45,2.55zM37.76,13.24l-24.52,24.52c-0.47999,-1.29232 -0.81537,-2.63384 -1,-4l21.55,-21.55c1.35713,0.19657 2.68848,0.54199 3.97,1.03z" fill="#cab99a"></path><path d="M31,2c-16.01626,0 -29,12.98374 -29,29c0,16.01626 12.98374,29 29,29c16.01626,0 29,-12.98374 29,-29c0,-16.01626 -12.98374,-29 -29,-29zM31,58c-14.91169,0 -27,-12.08831 -27,-27c0,-14.91169 12.08831,-27 27,-27c14.91169,0 27,12.08831 27,27c0,14.91169 -12.08831,27 -27,27z" fill="#222222"></path><path d="M31,11c-6.29071,0.01875 -12.21058,2.97868 -16,8v-4.1c0,-0.55228 -0.44772,-1 -1,-1c-0.55228,0 -1,0.44772 -1,1v7.1c0,0.55228 0.44772,1 1,1h7c0.55228,0 1,-0.44772 1,-1c0,-0.55228 -0.44772,-1 -1,-1h-5c4.76845,-7.13673 13.91256,-9.91379 21.84445,-6.63413c7.93189,3.27966 12.44468,11.70352 10.78064,20.12386c-1.66404,8.42034 -9.04192,14.49435 -17.62509,14.51027c-4.97765,0.02246 -9.73807,-2.03688 -13.13,-5.68c-0.37832,-0.40317 -1.01183,-0.42332 -1.415,-0.045c-0.40317,0.37832 -0.42332,1.01183 -0.045,1.415c6.2488,6.65515 16.21103,8.23439 24.21173,3.83811c8.0007,-4.39628 12.00914,-13.65223 9.74191,-22.4952c-2.26723,-8.84297 -10.23465,-15.02846 -19.36364,-15.03291zM14.42,38c-0.12987,-0.34273 -0.43682,-0.58695 -0.79997,-0.63648c-0.36315,-0.04953 -0.72429,0.10356 -0.94121,0.39899c-0.21691,0.29543 -0.25483,0.68585 -0.09883,1.01749c0.33971,0.79769 0.73052,1.57263 1.17,2.32c0.30161,0.41472 0.86804,0.53409 1.31136,0.27634c0.44332,-0.25774 0.61983,-0.80905 0.40864,-1.27634c-0.39553,-0.67629 -0.74628,-1.3778 -1.05,-2.1z" fill="#222222"></path><path d="M46,31c0,-0.55228 -0.44772,-1 -1,-1h-2c-0.55228,0 -1,0.44772 -1,1c0,0.55228 0.44772,1 1,1h2c0.55228,0 1,-0.44772 1,-1z" fill="#ca4140"></path><path d="M17,32h2c0.55228,0 1,-0.44772 1,-1c0,-0.55228 -0.44772,-1 -1,-1h-2c-0.55228,0 -1,0.44772 -1,1c0,0.55228 0.44772,1 1,1z" fill="#222222"></path><path d="M44,37.25c0.48253,0.0061 0.90058,-0.33326 0.99381,-0.80674c0.09322,-0.47348 -0.16498,-0.94599 -0.61381,-1.12326l-1.85,-0.75c-0.50103,-0.1682 -1.04643,0.08252 -1.24499,0.5723c-0.19856,0.48979 0.01828,1.04952 0.49499,1.2777l1.85,0.75c0.11712,0.04998 0.2427,0.07713 0.37,0.08zM38.91,38.64c-0.38772,0.39004 -0.38772,1.01996 0,1.41l1.44,1.39c0.39765,0.38936 1.03564,0.38265 1.425,-0.015c0.38936,-0.39765 0.38265,-1.03564 -0.015,-1.425l-1.44,-1.39c-0.39824,-0.37955 -1.02827,-0.36614 -1.41,0.03z" fill="#ca4140"></path><path d="M30,43v2c0,0.55228 0.44772,1 1,1c0.55228,0 1,-0.44772 1,-1v-2c0,-0.55228 -0.44772,-1 -1,-1c-0.55228,0 -1,0.44772 -1,1zM32,19v-2c0,-0.55228 -0.44772,-1 -1,-1c-0.55228,0 -1,0.44772 -1,1v2c0,0.55228 0.44772,1 1,1c0.55228,0 1,-0.44772 1,-1z" fill="#222222"></path><path d="M43.61,24.83l-1.85,0.75c-0.35256,0.11836 -0.61032,0.42259 -0.66916,0.78981c-0.05883,0.36722 0.09098,0.73675 0.38892,0.95933c0.29794,0.22258 0.69479,0.26143 1.03024,0.10086l1.85,-0.75c0.47671,-0.22818 0.69355,-0.78791 0.49499,-1.2777c-0.19856,-0.48979 -0.74396,-0.7405 -1.24499,-0.5723z" fill="#ca4140"></path><path d="M29,31c0,1.10457 0.89543,2 2,2c0.17231,-0.00127 0.34373,-0.02479 0.51,-0.07l4.28,4.28c0.39676,0.33978 0.98819,0.31693 1.35756,-0.05244c0.36937,-0.36937 0.39221,-0.9608 0.05244,-1.35756l-4.28,-4.28c0.095,-0.32656 0.095,-0.67344 0,-1l8.78,-8.78c0.33978,-0.39676 0.31693,-0.98819 -0.05244,-1.35756c-0.36937,-0.36937 -0.9608,-0.39221 -1.35756,-0.05244l-8.78,8.78c-0.16447,-0.05878 -0.33593,-0.09576 -0.51,-0.11c-1.10457,0 -2,0.89543 -2,2z" fill="#222222"></path></g></g></svg>