<svg xmlns="http://www.w3.org/2000/svg" xmlns:xlink="http://www.w3.org/1999/xlink" viewBox="0,0,256,256" width="128px" height="128px" fill-rule="nonzero"><g fill="none" fill-rule="nonzero" stroke="none" stroke-width="1" stroke-linecap="butt" stroke-linejoin="miter" stroke-miterlimit="10" stroke-dasharray="" stroke-dashoffset="0" font-family="none" font-weight="none" font-size="none" text-anchor="none" style="mix-blend-mode: normal"><g transform="scale(4,4)"><path d="M23.08,18.45c-0.09,0 -0.18,-0.01 -0.27,-0.04l-10.16,-2.9c-0.53,-0.15 -0.84,-0.71 -0.69,-1.24c0.15,-0.53 0.71,-0.84 1.24,-0.69l10.16,2.9c0.53,0.15 0.84,0.71 0.69,1.24c-0.13,0.44 -0.53,0.73 -0.96,0.73z" fill="#222222"></path><path d="M40.92,10.45c-0.44,0 -0.84,-0.29 -0.96,-0.73c-0.15,-0.53 0.16,-1.08 0.69,-1.24l10.16,-2.9c0.53,-0.15 1.08,0.16 1.24,0.69c0.15,0.53 -0.16,1.08 -0.69,1.24l-10.16,2.9c-0.09,0.03 -0.18,0.04 -0.27,0.04z" fill="#222222"></path><path d="M26.74,18.01c-0.35,0 -0.68,-0.18 -0.87,-0.5c-0.27,-0.48 -0.11,-1.09 0.37,-1.36l10.52,-6.02c0.48,-0.27 1.09,-0.11 1.36,0.37c0.27,0.48 0.11,1.09 -0.37,1.36l-10.52,6.02c-0.16,0.09 -0.33,0.13 -0.5,0.13z" fill="#222222"></path><rect x="4" y="54" width="56" height="6" rx="1" ry="1" fill="#222222"></rect><path d="M8,24h6c0.55,0 1,0.45 1,1v29h-8v-29c0,-0.55 0.45,-1 1,-1z" fill="#cab99a"></path><path d="M22,28h6c0.55,0 1,0.45 1,1v25h-8v-25c0,-0.55 0.45,-1 1,-1z" fill="#ffffff"></path><path d="M36,20h6c0.55,0 1,0.45 1,1v33h-8v-33c0,-0.55 0.45,-1 1,-1z" fill="#cab99a"></path><path d="M50,16h6c0.55,0 1,0.45 1,1v37h-8v-37c0,-0.55 0.45,-1 1,-1z" fill="#ffffff"></path><circle cx="11" cy="14" r="2" fill="#222222"></circle><circle cx="25" cy="18" r="2" fill="#222222"></circle><circle cx="39" cy="10" r="2" fill="#222222"></circle><circle cx="53" cy="6" r="2" fill="#222222"></circle></g></g></svg>