<svg xmlns="http://www.w3.org/2000/svg" xmlns:xlink="http://www.w3.org/1999/xlink" viewBox="0,0,256,256" width="128px" height="128px" fill-rule="nonzero"><g fill="none" fill-rule="nonzero" stroke="none" stroke-width="1" stroke-linecap="butt" stroke-linejoin="miter" stroke-miterlimit="10" stroke-dasharray="" stroke-dashoffset="0" font-family="none" font-weight="none" font-size="none" text-anchor="none" style="mix-blend-mode: normal"><g transform="scale(4,4)"><path d="M61,26.938c-4.22057,0.001 -8.12934,2.22243 -10.29,5.848c-4.46181,-2.59737 -9.54786,-3.92783 -14.71,-3.848c-5.81899,-0.12924 -11.52803,1.59748 -16.3,4.93l-1,-3.5c-1.0968,-3.84418 -0.88575,-7.94377 0.6,-11.655l0.7,-1.775h11l4,-10l-11,-4l-11,10l-9.457,30.429c-0.35892,1.04013 -0.54242,2.13269 -0.543,3.233v7.34c3.97389,1.32435 8.13524,1.99967 12.324,2h7.476c4.10381,2.02143 8.62561,3.04911 13.2,3c9.03,0 16.786,-3.711 20.175,-9.018c1.52021,0.67041 3.16353,1.01644 4.825,1.016z" fill="#cab99a"></path><path d="M35.958,54l-8.649,-8.695c-1.79306,-1.80273 -2.13595,-4.59161 -0.833,-6.775l0.005,-0.007c0.46243,-0.77539 1.10882,-1.42487 1.882,-1.891v0c2.16963,-1.30895 4.95276,-0.96622 6.74,0.83l0.855,0.86l0.859,-0.863c1.78479,-1.79458 4.56477,-2.13732 6.732,-0.83v0c0.77622,0.4685 1.42502,1.12107 1.889,1.9v0.008c1.30121,2.18085 0.95874,4.9663 -0.832,6.767z" fill="#ca4140"></path><path d="M44.065,35.772c-2.56058,-1.54993 -5.84954,-1.14444 -7.957,0.981l-0.15,0.151l-0.146,-0.147c-1.41662,-1.4241 -3.41208,-2.11322 -5.40561,-1.86682c-1.99353,0.2464 -3.76114,1.40066 -4.78839,3.12682c-1.5397,2.57526 -1.13529,5.86703 0.982,7.993l8.648,8.7c0.18769,0.1887 0.44285,0.29479 0.709,0.29479c0.26615,0 0.52131,-0.10609 0.709,-0.29479l8.653,-8.7c1.41865,-1.42641 2.10398,-3.42512 1.85911,-5.42193c-0.24487,-1.99681 -1.39283,-3.7707 -3.11411,-4.81207zM43.9,44.6l-7.944,7.986l-7.937,-7.986c-1.47356,-1.48077 -1.75365,-3.77298 -0.68,-5.565c0.71199,-1.19391 1.9358,-1.99175 3.31549,-2.16147c1.37969,-0.16972 2.76038,0.30772 3.74051,1.29347l0.854,0.86c0.18769,0.1887 0.44285,0.29479 0.709,0.29479c0.26615,0 0.52131,-0.10609 0.709,-0.29479l0.859,-0.863c1.45825,-1.47164 3.73496,-1.75235 5.507,-0.679c1.19609,0.72478 1.99323,1.95855 2.1624,3.34683c0.16917,1.38828 -0.30836,2.77737 -1.2954,3.76817z" fill="#222222"></path><path d="M61,26c-4.22124,-0.0149 -8.18174,2.04007 -10.6,5.5c-4.43047,-2.35597 -9.38242,-3.55957 -14.4,-3.5c-5.54496,-0.07978 -10.9989,1.41433 -15.729,4.309l-0.616,-2.155c-1.03673,-3.63049 -0.83835,-7.50248 0.564,-11.008l0.461,-1.146h10.32c0.40894,0.00031 0.77687,-0.2484 0.929,-0.628l4,-10c0.10079,-0.25149 0.09523,-0.53311 -0.01542,-0.78042c-0.11065,-0.24731 -0.31691,-0.43914 -0.57158,-0.53158l-11,-4c-0.34921,-0.12711 -0.74011,-0.05009 -1.015,0.2l-11,10c-0.13179,0.11991 -0.22914,0.27285 -0.282,0.443l-9.445,30.402c-0.39553,1.14359 -0.59829,2.34495 -0.6,3.555v7.34c-0.0001,0.43061 0.27546,0.81293 0.684,0.949c4.07671,1.36015 8.34638,2.05274 12.644,2.051h7.236c4.18755,2.02229 8.78596,3.04903 13.436,3c8.721,0 16.67,-3.425 20.549,-8.789c1.42551,0.52348 2.93241,0.79059 4.451,0.789c0.55228,0 1,-0.44772 1,-1v-24c0,-0.55228 -0.44772,-1 -1,-1zM60,49.955c-1.18131,-0.10829 -2.3371,-0.40821 -3.422,-0.888c-0.45147,-0.19888 -0.98052,-0.03881 -1.246,0.377c-3.316,5.198 -10.905,8.556 -19.332,8.556c-4.41621,0.05272 -8.78253,-0.93744 -12.744,-2.89c-0.14113,-0.0723 -0.29743,-0.11001 -0.456,-0.11h-7.472c-3.84176,0.00157 -7.66143,-0.58109 -11.328,-1.728v-6.612c0.00199,-0.9987 0.17098,-1.99005 0.5,-2.933l9.379,-30.17l10.35,-9.411l5.607,2.039l-2.492,5.815h-2.344v2h3c0.39996,-0.00004 0.76142,-0.2384 0.919,-0.606l2.8,-6.524l1.973,0.717l-3.366,8.413h-10.326c-0.40894,-0.00031 -0.77687,0.2484 -0.929,0.628l-0.71,1.775c-1.56587,3.91724 -1.7871,8.24346 -0.629,12.3l1,3.485c-0.2,0.245 -0.389,0.5 -0.565,0.765c-0.7322,1.09243 -1.24191,2.31846 -1.5,3.608l-0.645,3.239c-0.10785,0.54149 0.24355,1.06793 0.785,1.176c0.06334,0.0146 0.12801,0.02264 0.193,0.024c0.47489,-0.00038 0.88402,-0.3347 0.979,-0.8l0.649,-3.242c0.41975,-2.09665 1.65494,-3.9408 3.434,-5.127l1.492,-0.995c0.06043,-0.04825 0.11512,-0.10328 0.163,-0.164c3.84507,-1.79186 8.04103,-2.70463 12.283,-2.672c4.97807,-0.07676 9.88323,1.20225 14.19,3.7c0.22758,0.13976 0.50162,0.18267 0.76103,0.11918c0.25941,-0.06349 0.48265,-0.22811 0.61997,-0.45718c1.789,-3.02693 4.92673,-5.00658 8.429,-5.318z" fill="#222222"></path></g></g></svg>