<svg xmlns="http://www.w3.org/2000/svg" xmlns:xlink="http://www.w3.org/1999/xlink" viewBox="0,0,256,256" width="100px"
     height="100px" fill-rule="nonzero" fill="#22222">
    <g fill-rule="nonzero" stroke="none" stroke-width="1" stroke-linecap="butt" stroke-linejoin="miter"
       stroke-miterlimit="10" stroke-dasharray="" stroke-dashoffset="0" font-family="none" font-weight="none"
       font-size="none" text-anchor="none" style="mix-blend-mode: normal">
        <g transform="scale(5.12,5.12)">
            <path d="M43,46h-36c-0.275,0 -0.538,-0.113 -0.727,-0.313c-0.189,-0.199 -0.287,-0.468 -0.272,-0.742c0.335,-5.96 4.896,-7.835 8.561,-9.343c2.194,-0.902 4.858,-2.177 5.431,-3.559c0.003,-0.015 0.005,-0.028 0.007,-0.043c-3.715,-0.422 -8,-0.714 -8,-3c0,-0.281 0.119,-0.55 0.326,-0.739c0.781,-0.712 1.175,-3.663 1.266,-6.517c0.225,-7.066 0.566,-17.744 11.508,-17.744c2.184,0 3.665,0.988 4.293,1.508c1.901,0.077 3.464,0.721 4.648,1.916c2.984,3.011 2.935,8.752 2.89,13.817c-0.025,2.905 -0.055,6.198 0.741,6.918c0.209,0.19 0.328,0.459 0.328,0.741c0,2.378 -5.722,2.803 -8,3.1c0.002,0.033 0.004,0.066 0.005,0.101c0.602,1.347 3.27,2.612 5.433,3.501c3.665,1.508 8.227,3.383 8.561,9.343c0.016,0.274 -0.082,0.543 -0.271,0.742c-0.19,0.2 -0.453,0.313 -0.728,0.313zM30.01,32.307h0.01zM28.8,31.598c0,0 0,0.001 0,0.002c0,-0.001 0,-0.002 0,-0.002zM28.8,31.596v0z"></path>
        </g>
    </g>
</svg>